<svg xmlns="http://www.w3.org/2000/svg" width="28" height="24.379" viewBox="0 0 28 24.379">
  <g id="telegram" transform="translate(0 -19.401)">
    <path id="XMLID_497_" d="M.495,31.09,6.946,33.5l2.5,8.031a.759.759,0,0,0,1.206.363l3.6-2.932a1.073,1.073,0,0,1,1.308-.036l6.486,4.709a.76.76,0,0,0,1.191-.46l4.752-22.857a.761.761,0,0,0-1.018-.864L.487,29.667A.761.761,0,0,0,.495,31.09Zm8.547,1.126L21.65,24.45a.22.22,0,0,1,.265.348L11.509,34.471a2.157,2.157,0,0,0-.669,1.291l-.354,2.627a.326.326,0,0,1-.636.046l-1.363-4.79A1.27,1.27,0,0,1,9.041,32.216Z" transform="translate(0 0)" fill="#387e76"/>
  </g>
</svg>
